<svg width="80" height="80" viewBox="0 0 80 80" fill="none" xmlns="http://www.w3.org/2000/svg">
<path d="M19.199 52.274C14.9238 52.274 11.4471 55.7507 11.4471 60.0259C11.4471 64.3011 14.9238 67.7778 19.199 67.7778C23.4742 67.7778 26.951 64.3011 26.951 60.0259C26.951 55.7507 23.4741 52.274 19.199 52.274ZM19.199 65.1938C16.3488 65.1938 14.0311 62.876 14.0311 60.0259C14.0311 57.1757 16.349 54.858 19.199 54.858C22.0491 54.858 24.3669 57.1759 24.3669 60.0259C24.3669 62.876 22.0491 65.1938 19.199 65.1938Z" fill="#EE1F23"/>
<path d="M63.1266 52.274C58.8514 52.274 55.3746 55.7507 55.3746 60.0259C55.3746 64.3011 58.8514 67.7778 63.1266 67.7778C67.4018 67.7778 70.8785 64.3011 70.8785 60.0259C70.8785 55.7507 67.4018 52.274 63.1266 52.274ZM63.1266 65.1938C60.2764 65.1938 57.9587 62.876 57.9587 60.0259C57.9587 57.1757 60.2765 54.858 63.1266 54.858C65.9768 54.858 68.2945 57.1759 68.2945 60.0259C68.2945 62.876 65.9768 65.1938 63.1266 65.1938Z" fill="#EE1F23"/>
<path d="M78.4249 45.1151L66.797 27.0272C66.5593 26.6576 66.1498 26.4341 65.7104 26.4341H51.4987C50.7842 26.4341 50.2067 27.013 50.2067 27.7261V60.0257C50.2067 60.7402 50.7842 61.3176 51.4987 61.3176H56.6666V58.7336H52.7906V29.0182H65.005L76.0464 46.1938V58.7339H69.5864V61.3178H77.3383C78.0528 61.3178 78.6302 60.7403 78.6302 60.0258V45.8139C78.6304 45.5672 78.5594 45.3229 78.4249 45.1151Z" fill="#EE1F23"/>
<path d="M57.9587 43.2301V34.1862H68.2946V31.6022H56.6667C55.9522 31.6022 55.3748 32.181 55.3748 32.8941V44.522C55.3748 45.2365 55.9522 45.8139 56.6667 45.8139H76.0465V43.2299H57.9587V43.2301Z" fill="#EE1F23"/>
<path d="M51.4986 17.3903H2.40308C1.68997 17.3903 1.11115 17.9691 1.11115 18.6823V60.0259C1.11115 60.7404 1.68997 61.3178 2.40308 61.3178H12.739V58.7338H3.69517V19.9742H50.2067V58.7338H25.6588V61.3178H51.4986C52.2131 61.3178 52.7906 60.7404 52.7906 60.0259V18.6823C52.7906 17.9691 52.2131 17.3903 51.4986 17.3903Z" fill="#EE1F23"/>
<path d="M10.155 53.566H2.40305V56.15H10.155V53.566Z" fill="#EE1F23"/>
<path d="M50.2067 53.566H28.2429V56.15H50.2067V53.566Z" fill="#EE1F23"/>
<path d="M77.3383 53.566H72.1704V56.15H77.3383V53.566Z" fill="#EE1F23"/>
<path d="M51.4986 22.5582H6.27905V25.1423H51.4986V22.5582Z" fill="#EE1F23"/>
<path d="M20.4909 58.7338H17.9069V61.3178H20.4909V58.7338Z" fill="#EE1F23"/>
<path d="M64.4186 58.7338H61.8346V61.3178H64.4186V58.7338Z" fill="#EE1F23"/>
<path d="M24.3669 12.2223H6.27905V14.8063H24.3669V12.2223Z" fill="#EE1F23"/>
<path d="M3.69514 12.2222H1.11111V14.8063H3.69514V12.2222Z" fill="#EE1F23"/>
</svg>
